<svg width="1012" height="622" viewBox="0 0 1012 622" fill="none" xmlns="http://www.w3.org/2000/svg">
<path d="M432.709 204.748C426.895 193.676 417.327 185.153 406.11 181.055C394.892 176.958 382.944 177.62 372.894 182.897C362.844 188.174 355.515 197.634 352.519 209.194C349.524 220.755 351.107 233.47 356.921 244.542L394.815 224.645L432.709 204.748Z" fill="black"/>
<path d="M578.921 204.748C584.734 193.676 594.302 185.153 605.52 181.055C616.737 176.958 628.685 177.62 638.735 182.897C648.785 188.174 656.114 197.634 659.11 209.194C662.106 220.755 660.522 233.47 654.709 244.542L616.815 224.645L578.921 204.748Z" fill="black"/>
</svg>
