<svg width="1011" height="622" viewBox="0 0 1011 622" fill="none" xmlns="http://www.w3.org/2000/svg">
<circle cx="650" cy="312" r="6.5" stroke="black" stroke-width="7"/>
<circle cx="663" cy="312" r="3" fill="black"/>
<circle cx="663" cy="312" r="3" stroke="black"/>
<circle cx="663" cy="319" r="3" fill="black"/>
<circle cx="663" cy="319" r="3" stroke="black"/>
<circle cx="663" cy="326" r="3" fill="black"/>
<circle cx="663" cy="326" r="3" stroke="black"/>
<circle cx="663" cy="354" r="3" fill="black"/>
<circle cx="663" cy="354" r="3" stroke="black"/>
<circle cx="663" cy="361" r="3" fill="black"/>
<circle cx="663" cy="361" r="3" stroke="black"/>
<circle cx="663" cy="368" r="3" fill="black"/>
<circle cx="663" cy="368" r="3" stroke="black"/>
<circle cx="663" cy="333" r="3" fill="black"/>
<circle cx="663" cy="333" r="3" stroke="black"/>
<circle cx="663" cy="340" r="3" fill="black"/>
<circle cx="663" cy="340" r="3" stroke="black"/>
<circle cx="663" cy="347" r="3" fill="black"/>
<circle cx="663" cy="347" r="3" stroke="black"/>
<circle cx="663" cy="375" r="3" fill="black"/>
<circle cx="663" cy="375" r="3" stroke="black"/>
<circle cx="663" cy="382" r="3" fill="black"/>
<circle cx="663" cy="382" r="3" stroke="black"/>
<circle cx="663" cy="389" r="3" fill="black"/>
<circle cx="663" cy="389" r="3" stroke="black"/>
<circle cx="663" cy="417" r="3" fill="black"/>
<circle cx="663" cy="417" r="3" stroke="black"/>
<circle cx="663" cy="424" r="3" fill="black"/>
<circle cx="663" cy="424" r="3" stroke="black"/>
<circle cx="663" cy="431" r="3" fill="black"/>
<circle cx="663" cy="431" r="3" stroke="black"/>
<circle cx="663" cy="396" r="3" fill="black"/>
<circle cx="663" cy="396" r="3" stroke="black"/>
<circle cx="663" cy="403" r="3" fill="black"/>
<circle cx="663" cy="403" r="3" stroke="black"/>
<circle cx="663" cy="410" r="3" fill="black"/>
<circle cx="663" cy="410" r="3" stroke="black"/>
<circle cx="611" cy="312" r="31.5" fill="#B2D0E9" fill-opacity="0.4" stroke="black" stroke-width="7"/>
<path d="M515.423 309.787C508.95 304.526 497 312.556 497 312.556C497 312.556 503.597 323.696 510.194 326.954C517.836 330.728 531 314.5 531 314.5C531 314.5 521.895 315.048 515.423 309.787Z" fill="black" stroke="black" stroke-width="6"/>
<path d="M478.916 309.787C485.389 304.526 497.339 312.556 497.339 312.556C497.339 312.556 490.742 323.696 484.144 326.954C476.503 330.728 464 317 464 317C464 317 472.444 315.048 478.916 309.787Z" fill="black" stroke="black" stroke-width="6"/>
<rect width="49.1757" height="4.25228" transform="matrix(-0.861824 -0.507208 -0.507208 0.861824 623.69 194.676)" fill="black"/>
<path d="M644.91 160.487C648.309 167.067 616.073 189.644 616.073 189.644C616.073 189.644 588.699 174.77 588.426 173.373C588.153 171.977 591.673 136.759 595.58 131.455C599.487 126.151 641.51 153.908 644.91 160.487Z" fill="black" stroke="black" stroke-width="6"/>
</svg>
