<svg width="1012" height="622" viewBox="0 0 1012 622" fill="none" xmlns="http://www.w3.org/2000/svg">
<ellipse cx="506" cy="310.5" rx="13" ry="6.5" fill="black"/>
<path d="M371.427 216.071L379.883 183.521L407.85 197.88L371.427 216.071Z" stroke="black" stroke-width="7"/>
<path d="M641.532 217.982L633.076 185.432L605.109 199.791L641.532 217.982Z" stroke="black" stroke-width="7"/>
<line x1="344.793" y1="319.716" x2="328.793" y2="306.716" stroke="black" stroke-width="7"/>
<line x1="344.183" y1="331.294" x2="305.183" y2="345.294" stroke="black" stroke-width="7"/>
<line x1="352.254" y1="347.677" x2="333.254" y2="363.677" stroke="black" stroke-width="7"/>
<line y1="-3.5" x2="20.6155" y2="-3.5" transform="matrix(0.776114 -0.630593 -0.630593 -0.776114 665 317)" stroke="black" stroke-width="7"/>
<line y1="-3.5" x2="41.4367" y2="-3.5" transform="matrix(0.941195 0.337865 0.337865 -0.941195 669 328)" stroke="black" stroke-width="7"/>
<line y1="-3.5" x2="24.8395" y2="-3.5" transform="matrix(0.764911 0.644136 0.644136 -0.764911 662 345)" stroke="black" stroke-width="7"/>
</svg>
