<svg width="1012" height="622" viewBox="0 0 1012 622" fill="none" xmlns="http://www.w3.org/2000/svg">
<path d="M411.205 189.947C399.205 176.947 400.705 123.947 419.705 107.447C427.837 133.515 444.205 152.447 467.205 165.447C447.205 182.947 425.705 189.947 411.205 189.947Z" fill="#AB1F1F"/>
<path d="M410.837 190.192C400.522 178.602 401.372 131.757 417.404 117.322C424.532 140.434 438.611 157.304 458.284 168.982C441.409 184.293 423.173 190.308 410.837 190.192Z" fill="#BE2121"/>
<path d="M412 183.5C408.5 177.322 407 176.5 408 158.5C410 171 411 173.5 414.5 178.5C412.338 185.176 414.058 184.852 412 183.5Z" fill="white"/>
<path d="M604.417 190.52C614.365 180.86 611.942 140.385 595.392 127.384C589.024 147.1 575.481 161.193 556.158 170.617C573.582 184.402 592.058 190.208 604.417 190.52Z" fill="#AB1F1F"/>
<path d="M604.785 190.73C613.159 182.109 611.636 146.522 598.055 135.282C592.531 152.707 581.119 165.272 564.966 173.797C579.263 185.717 594.53 190.603 604.785 190.73Z" fill="#BE2121"/>
<path d="M684 375.5C742 379 754 343.5 745.5 312.5C737 281.5 769 256.5 793 288.5" stroke="black" stroke-width="7"/>
<path d="M792 288C784.84 286.344 780.889 286.278 774 288C787.83 294.978 794.656 300.066 804.5 312C802.948 296.594 801.724 288.087 799.5 273C794.925 278.101 793.179 281.337 792 288Z" fill="black"/>
<path d="M576.083 175.811C577.816 174.536 578 174.5 580.512 168.477C576.687 172.52 575.421 172.835 573 174C573.907 175.179 575.395 175.701 576.083 175.811Z" fill="white"/>
</svg>
