<svg width="1012" height="622" viewBox="0 0 1012 622" fill="none" xmlns="http://www.w3.org/2000/svg">
<path d="M730.685 279.422C732.391 282.941 732.703 285.735 732.059 287.992C695.057 305.882 622.685 335.789 509.004 319.165C450.029 305.081 399.776 288.934 364.322 268.357C328.995 247.853 309.131 223.44 308.95 192.906C310.913 185.25 316.714 178.273 326.563 172.485C336.586 166.594 350.539 162.107 367.979 159.534C402.841 154.392 450.943 157.003 507.53 170.51C566.349 184.55 626.06 207.906 669.316 231.387C690.969 243.141 708.319 254.83 719.365 265.281C724.901 270.517 728.677 275.28 730.685 279.422Z" fill="#403440" stroke="#7D4682" stroke-width="7"/>
<path d="M484 99.6531C479 103.697 438.5 144.653 413.5 183.153C453.5 245.153 575.5 259.153 656 242.653C652 223.153 649.5 194.153 635.5 157.153C663 163.153 667 153.153 681.5 131.653C647.5 126.653 619.762 70.603 586 57.6531C538.263 39.3433 489 95.609 484 99.6531Z" fill="#403440" stroke="#7D4682" stroke-width="7"/>
<path d="M404 181.653L431.5 156.153C484.5 223.153 545 223.153 652 215.153L663 245.153C615.501 277.153 401 232.653 404 181.653Z" fill="#7D4682"/>
</svg>
