<svg width="1012" height="622" viewBox="0 0 1012 622" fill="none" xmlns="http://www.w3.org/2000/svg">
<path d="M538.5 316.729C538.5 319.627 537.688 321.512 536.428 322.852C535.11 324.255 533.058 325.319 530.133 326.063C524.458 327.506 516.599 327.503 507.366 327.499C506.914 327.499 506.459 327.499 506 327.499C505.541 327.499 505.086 327.499 504.634 327.499C495.401 327.503 487.542 327.506 481.867 326.063C478.942 325.319 476.89 324.255 475.572 322.852C474.312 321.512 473.5 319.627 473.5 316.729C473.5 310.93 476.823 305.433 482.694 301.285C488.558 297.142 496.79 294.5 506 294.5C515.21 294.5 523.442 297.142 529.306 301.285C535.177 305.433 538.5 310.93 538.5 316.729Z" fill="#EAA4A4" stroke="#DE9E9E" stroke-width="5"/>
<path d="M514.553 308.367C512.43 308.803 513.331 320.814 519.501 316.712C525.67 312.611 516.675 307.93 514.553 308.367Z" fill="#C28282"/>
<path d="M514.441 309.113C512.459 309.444 513.686 320.506 519.358 316.943C525.03 313.38 516.424 308.783 514.441 309.113Z" fill="#DE7878"/>
<path d="M499.287 308.235C501.41 308.671 500.509 320.682 494.339 316.58C488.169 312.479 497.164 307.798 499.287 308.235Z" fill="#C28282"/>
<path d="M499.399 308.981C501.381 309.312 500.154 320.374 494.482 316.811C488.809 313.248 497.416 308.651 499.399 308.981Z" fill="#DE7878"/>
<path d="M481 302.5C493.5 291 520 292 532.5 303.5" stroke="#FBC1C1" stroke-width="5" stroke-linecap="round"/>
</svg>
