<svg width="1012" height="622" viewBox="0 0 1012 622" fill="none" xmlns="http://www.w3.org/2000/svg">
<path d="M524.53 138.51C583.349 152.551 643.06 175.906 686.315 199.387C707.969 211.141 725.318 222.83 736.365 233.281C741.9 238.517 745.676 243.28 747.684 247.422C749.39 250.939 749.701 253.731 749.058 255.988C712.057 273.879 639.685 303.789 526.001 287.164C467.027 273.08 416.775 256.933 381.322 236.357C345.994 215.853 326.133 191.44 325.952 160.905C327.916 153.249 333.714 146.272 343.562 140.484C353.585 134.594 367.538 130.107 384.978 127.535C419.295 122.473 466.443 124.922 521.883 137.884L524.53 138.51Z" fill="#616EC2" stroke="white" stroke-width="7"/>
<path d="M501 67.6531C496 71.6971 455.5 112.653 430.5 151.153C470.5 213.153 592.5 227.153 673 210.653C669 191.153 666.5 162.153 652.5 125.153C680 131.153 684 121.153 698.5 99.6532C664.5 94.6532 636.762 38.603 603 25.6531C555.263 7.34326 506 63.609 501 67.6531Z" fill="#616EC2" stroke="white" stroke-width="7"/>
<path d="M421 149.653L448.5 124.153C501.5 191.153 562 191.153 669 183.153L679.999 213.153C632.5 245.153 418 200.653 421 149.653Z" fill="white" stroke="white" stroke-width="6"/>
<path d="M538 133L539.796 138.528H545.608L540.906 141.944L542.702 147.472L538 144.056L533.298 147.472L535.094 141.944L530.392 138.528H536.204L538 133Z" fill="white"/>
<path d="M643 161L644.123 164.455H647.755L644.816 166.59L645.939 170.045L643 167.91L640.061 170.045L641.184 166.59L638.245 164.455H641.877L643 161Z" fill="white"/>
<path d="M708 177L709.123 180.455H712.755L709.816 182.59L710.939 186.045L708 183.91L705.061 186.045L706.184 182.59L703.245 180.455H706.877L708 177Z" fill="white"/>
<path d="M740 163L741.572 167.491H746.657L742.543 170.267L744.114 174.759L740 171.983L735.886 174.759L737.457 170.267L733.343 167.491H738.428L740 163Z" fill="white"/>
<path d="M642 262L643.796 267.528H649.608L644.906 270.944L646.702 276.472L642 273.056L637.298 276.472L639.094 270.944L634.392 267.528H640.204L642 262Z" fill="white"/>
<path d="M600 231L601.796 236.528H607.608L602.906 239.944L604.702 245.472L600 242.056L595.298 245.472L597.094 239.944L592.392 236.528H598.204L600 231Z" fill="white"/>
<path d="M558.5 181L559.735 184.8H563.731L560.498 187.149L561.733 190.95L558.5 188.601L555.267 190.95L556.502 187.149L553.269 184.8H557.265L558.5 181Z" fill="white"/>
<path d="M514 215L515.796 220.528H521.608L516.906 223.944L518.702 229.472L514 226.056L509.298 229.472L511.094 223.944L506.392 220.528H512.204L514 215Z" fill="white"/>
<path d="M461 235L462.796 240.528H468.608L463.906 243.944L465.702 249.472L461 246.056L456.298 249.472L458.094 243.944L453.392 240.528H459.204L461 235Z" fill="white"/>
<path d="M393.5 171L397.204 182.401H409.192L399.494 189.448L403.198 200.849L393.5 193.802L383.802 200.849L387.506 189.448L377.808 182.401H389.796L393.5 171Z" fill="white"/>
<path d="M715.059 133.693L717.149 148.807L732.168 151.49L718.44 158.148L720.53 173.261L709.956 162.262L696.227 168.92L703.421 155.464L692.847 144.465L707.866 147.148L715.059 133.693Z" fill="white"/>
<path d="M482.5 142L483.735 145.8H487.731L484.498 148.149L485.733 151.95L482.5 149.601L479.267 151.95L480.502 148.149L477.269 145.8H481.265L482.5 142Z" fill="white"/>
<path d="M438 126L439.123 129.455H442.755L439.816 131.59L440.939 135.045L438 132.91L435.061 135.045L436.184 131.59L433.245 129.455H436.877L438 126Z" fill="white"/>
<path d="M387 147L388.796 152.528H394.608L389.906 155.944L391.702 161.472L387 158.056L382.298 161.472L384.094 155.944L379.392 152.528H385.204L387 147Z" fill="white"/>
<path d="M661 170L662.796 175.528H668.608L663.906 178.944L665.702 184.472L661 181.056L656.298 184.472L658.094 178.944L653.392 175.528H659.204L661 170Z" fill="white"/>
<path d="M595 176L596.796 181.528H602.608L597.906 184.944L599.702 190.472L595 187.056L590.298 190.472L592.094 184.944L587.392 181.528H593.204L595 176Z" fill="white"/>
<path d="M739 243L740.796 248.528H746.608L741.906 251.944L743.702 257.472L739 254.056L734.298 257.472L736.094 251.944L731.392 248.528H737.204L739 243Z" fill="white"/>
<path d="M518.5 94L519.735 97.4549H523.731L520.498 99.5902L521.733 103.045L518.5 100.91L515.267 103.045L516.502 99.5902L513.269 97.4549H517.265L518.5 94Z" fill="white"/>
<path d="M577.5 35L578.735 38.8004H582.731L579.498 41.1492L580.733 44.9496L577.5 42.6008L574.267 44.9496L575.502 41.1492L572.269 38.8004H576.265L577.5 35Z" fill="white"/>
<path d="M650 93L651.796 98.5279H657.608L652.906 101.944L654.702 107.472L650 104.056L645.298 107.472L647.094 101.944L642.392 98.5279H648.204L650 93Z" fill="white"/>
<path d="M606 100L607.123 103.455H610.755L607.816 105.59L608.939 109.045L606 106.91L603.061 109.045L604.184 105.59L601.245 103.455H604.877L606 100Z" fill="white"/>
<path d="M531 93L532.796 98.5279H538.608L533.906 101.944L535.702 107.472L531 104.056L526.298 107.472L528.094 101.944L523.392 98.5279H529.204L531 93Z" fill="white"/>
<path d="M581.5 69L582.735 72.1094H586.731L583.498 74.0312L584.733 77.1406L581.5 75.2188L578.267 77.1406L579.502 74.0312L576.269 72.1094H580.265L581.5 69Z" fill="white"/>
<path d="M678 257L679.123 260.455H682.755L679.816 262.59L680.939 266.045L678 263.91L675.061 266.045L676.184 262.59L673.245 260.455H676.877L678 257Z" fill="white"/>
<path d="M690 209L690.674 211.073H692.853L691.09 212.354L691.763 214.427L690 213.146L688.237 214.427L688.91 212.354L687.147 211.073H689.326L690 209Z" fill="white"/>
<path d="M593.5 277L594.735 280.8H598.731L595.498 283.149L596.733 286.95L593.5 284.601L590.267 286.95L591.502 283.149L588.269 280.8H592.265L593.5 277Z" fill="white"/>
<path d="M517.5 238L518.735 241.8H522.731L519.498 244.149L520.733 247.95L517.5 245.601L514.267 247.95L515.502 244.149L512.269 241.8H516.265L517.5 238Z" fill="white"/>
<path d="M473 222L474.123 225.455H477.755L474.816 227.59L475.939 231.045L473 228.91L470.061 231.045L471.184 227.59L468.245 225.455H471.877L473 222Z" fill="white"/>
<path d="M553.5 190L554.735 193.455H558.731L555.498 195.59L556.733 199.045L553.5 196.91L550.267 199.045L551.502 195.59L548.269 193.455H552.265L553.5 190Z" fill="white"/>
<path d="M612.5 131L613.735 134.8H617.731L614.498 137.149L615.733 140.95L612.5 138.601L609.267 140.95L610.502 137.149L607.269 134.8H611.265L612.5 131Z" fill="white"/>
<path d="M641 196L642.123 199.455H645.755L642.816 201.59L643.939 205.045L641 202.91L638.061 205.045L639.184 201.59L636.245 199.455H639.877L641 196Z" fill="white"/>
<path d="M616.5 165L617.735 168.109H621.731L618.498 170.031L619.733 173.141L616.5 171.219L613.267 173.141L614.502 170.031L611.269 168.109H615.265L616.5 165Z" fill="white"/>
<path d="M399 225L400.123 228.455H403.755L400.816 230.59L401.939 234.045L399 231.91L396.061 234.045L397.184 230.59L394.245 228.455H397.877L399 225Z" fill="white"/>
<path d="M362 164L363.123 167.455H366.755L363.816 169.59L364.939 173.045L362 170.91L359.061 173.045L360.184 169.59L357.245 167.455H360.877L362 164Z" fill="white"/>
</svg>
