<svg width="1483" height="378" viewBox="0 0 1483 378" fill="none" xmlns="http://www.w3.org/2000/svg">
<rect x="255" width="976" height="378" fill="black" fill-opacity="0.54"/>
<rect x="213" width="42" height="42" fill="black" fill-opacity="0.54"/>
<rect x="129" width="42" height="42" fill="black" fill-opacity="0.54"/>
<rect x="171" y="42" width="42" height="42" fill="black" fill-opacity="0.54"/>
<rect x="129" y="42" width="42" height="42" fill="black" fill-opacity="0.54"/>
<rect x="45" y="42" width="42" height="42" fill="black" fill-opacity="0.54"/>
<rect x="171" y="84" width="42" height="42" fill="black" fill-opacity="0.54"/>
<rect x="45" y="84" width="42" height="42" fill="black" fill-opacity="0.54"/>
<rect x="213" y="126" width="42" height="42" fill="black" fill-opacity="0.54"/>
<rect x="171" y="126" width="42" height="42" fill="black" fill-opacity="0.54"/>
<rect x="87" y="126" width="42" height="42" fill="black" fill-opacity="0.54"/>
<rect x="213" y="168" width="42" height="42" fill="black" fill-opacity="0.54"/>
<rect x="1231" width="42" height="42" fill="black" fill-opacity="0.54"/>
<rect x="1273" width="42" height="42" fill="black" fill-opacity="0.54"/>
<rect x="1273" y="42" width="42" height="42" fill="black" fill-opacity="0.54"/>
<rect x="1315" y="42" width="42" height="42" fill="black" fill-opacity="0.54"/>
<rect x="1315" y="84" width="42" height="42" fill="black" fill-opacity="0.54"/>
<rect x="1315" y="126" width="42" height="42" fill="black" fill-opacity="0.54"/>
<rect x="1315" y="168" width="42" height="42" fill="black" fill-opacity="0.54"/>
<rect x="1273" y="168" width="42" height="42" fill="black" fill-opacity="0.54"/>
<rect x="1231" y="168" width="42" height="42" fill="black" fill-opacity="0.54"/>
<rect x="1231" y="126" width="42" height="42" fill="black" fill-opacity="0.54"/>
<rect x="1273" y="210" width="42" height="42" fill="black" fill-opacity="0.54"/>
<rect x="1231" y="252" width="42" height="42" fill="black" fill-opacity="0.54"/>
<rect x="1273" y="336" width="42" height="42" fill="black" fill-opacity="0.54"/>
<rect x="1315" y="336" width="42" height="42" fill="black" fill-opacity="0.54"/>
<rect x="1399" y="336" width="42" height="42" fill="black" fill-opacity="0.54"/>
<rect x="1441" y="294" width="42" height="42" fill="black" fill-opacity="0.54"/>
<rect x="1231" y="294" width="42" height="42" fill="black" fill-opacity="0.54"/>
<rect x="1357" y="210" width="42" height="42" fill="black" fill-opacity="0.54"/>
<rect x="1399" y="168" width="42" height="42" fill="black" fill-opacity="0.54"/>
<rect x="1399" y="42" width="42" height="42" fill="black" fill-opacity="0.54"/>
<rect x="1357" y="84" width="42" height="42" fill="black" fill-opacity="0.54"/>
<rect x="1441" y="84" width="42" height="42" fill="black" fill-opacity="0.54"/>
<rect x="1315" y="294" width="42" height="42" fill="black" fill-opacity="0.54"/>
<rect x="1357" y="252" width="42" height="42" fill="black" fill-opacity="0.54"/>
<rect x="171" y="168" width="42" height="42" fill="black" fill-opacity="0.54"/>
<rect y="168" width="42" height="42" fill="black" fill-opacity="0.54"/>
<rect x="129" y="210" width="42" height="42" fill="black" fill-opacity="0.54"/>
<path d="M129 252H171V294H129V252Z" fill="black" fill-opacity="0.54"/>
<path d="M42 252H84V294H42V252Z" fill="black" fill-opacity="0.54"/>
<rect x="213" y="294" width="42" height="42" fill="black" fill-opacity="0.54"/>
<rect x="84" y="294" width="42" height="42" fill="black" fill-opacity="0.54"/>
<rect x="42" y="294" width="42" height="42" fill="black" fill-opacity="0.54"/>
<path d="M171 336H213V378H171V336Z" fill="black" fill-opacity="0.54"/>
<path d="M213 252H255V294H213V252Z" fill="black" fill-opacity="0.54"/>
</svg>
