<svg width="1011" height="622" viewBox="0 0 1011 622" fill="none" xmlns="http://www.w3.org/2000/svg">
<path d="M637.129 224.215C636.928 212.993 641.913 185.793 652.946 190.652C666.318 196.541 650.805 218.485 637.129 224.215Z" fill="white" stroke="white" stroke-width="5"/>
<path d="M638.822 227.956C649.037 226.729 674.074 229.239 670.197 240.736C665.498 254.672 644.726 241.134 638.822 227.956Z" fill="white" stroke="white" stroke-width="5"/>
<path d="M636.643 226.201C644.069 233.862 657.997 256.092 646.64 260.094C632.874 264.944 630.185 239.326 636.643 226.201Z" fill="white" stroke="white" stroke-width="5"/>
<path d="M635.402 222.264C627.632 215.296 612.653 194.53 623.726 189.794C637.148 184.052 641.139 208.945 635.402 222.264Z" fill="white" stroke="white" stroke-width="5"/>
<path d="M635.839 229.59C634.505 239.901 625.942 263.817 615.861 257.197C603.642 249.174 621.74 232.142 635.839 229.59Z" fill="white" stroke="white" stroke-width="5"/>
<path d="M633.966 227.141C625.652 234.258 602.093 247.194 598.887 235.479C595.002 221.279 621.153 219.907 633.966 227.141Z" fill="white" stroke="white" stroke-width="5"/>
<path d="M632.355 224.208C621.997 223.444 597.62 216.147 603.566 205.589C610.773 192.792 628.906 210.111 632.355 224.208Z" fill="white" stroke="white" stroke-width="5"/>
<path d="M639.837 225.002C646.521 217.456 666.444 203.15 670.989 214.391C676.498 228.015 652.615 231.186 639.837 225.002Z" fill="white" stroke="white" stroke-width="5"/>
<path d="M644.914 226.068C644.914 231.022 640.691 235.187 635.295 235.187C629.899 235.187 625.676 231.022 625.676 226.068C625.676 221.113 629.899 216.949 635.295 216.949C640.691 216.949 644.914 221.113 644.914 226.068Z" fill="#FFD755" stroke="#FFD755" stroke-width="4"/>
</svg>
