<svg width="1012" height="622" viewBox="0 0 1012 622" fill="none" xmlns="http://www.w3.org/2000/svg">
<path d="M730.685 283.422C732.391 286.941 732.703 289.735 732.058 291.992C695.057 309.882 622.685 339.789 509.003 323.165C450.028 309.081 399.776 292.934 364.321 272.357C328.994 251.853 309.13 227.44 308.949 196.906C310.913 189.25 316.714 182.273 326.563 176.485C336.586 170.594 350.538 166.107 367.978 163.534C402.84 158.392 450.943 161.003 507.529 174.51C566.349 188.55 626.059 211.906 669.315 235.387C690.968 247.141 708.318 258.83 719.365 269.281C724.9 274.517 728.676 279.28 730.685 283.422Z" fill="#616EC2" stroke="white" stroke-width="7"/>
<path d="M484 103.653C479 107.697 438.5 148.653 413.5 187.153C453.5 249.153 575.5 263.153 656 246.653C652 227.153 649.5 198.153 635.5 161.153C663 167.153 667 157.153 681.5 135.653C647.5 130.653 619.762 74.603 586 61.6531C538.263 43.3433 489 99.609 484 103.653Z" fill="#616EC2" stroke="white" stroke-width="7"/>
<path d="M404 185.653L431.5 160.153C484.5 227.153 545 227.153 652 219.153L662.999 249.153C615.5 281.153 401 236.653 404 185.653Z" fill="white" stroke="white" stroke-width="6"/>
<path d="M521 169L522.796 174.528H528.608L523.906 177.944L525.702 183.472L521 180.056L516.298 183.472L518.094 177.944L513.392 174.528H519.204L521 169Z" fill="white"/>
<path d="M626 197L627.123 200.455H630.755L627.816 202.59L628.939 206.045L626 203.91L623.061 206.045L624.184 202.59L621.245 200.455H624.877L626 197Z" fill="white"/>
<path d="M691 213L692.123 216.455H695.755L692.816 218.59L693.939 222.045L691 219.91L688.061 222.045L689.184 218.59L686.245 216.455H689.877L691 213Z" fill="white"/>
<path d="M723 199L724.572 203.491H729.657L725.543 206.267L727.114 210.759L723 207.983L718.886 210.759L720.457 206.267L716.343 203.491H721.428L723 199Z" fill="white"/>
<path d="M625 298L626.796 303.528H632.608L627.906 306.944L629.702 312.472L625 309.056L620.298 312.472L622.094 306.944L617.392 303.528H623.204L625 298Z" fill="white"/>
<path d="M583 267L584.796 272.528H590.608L585.906 275.944L587.702 281.472L583 278.056L578.298 281.472L580.094 275.944L575.392 272.528H581.204L583 267Z" fill="white"/>
<path d="M541.5 217L542.735 220.8H546.731L543.498 223.149L544.733 226.95L541.5 224.601L538.267 226.95L539.502 223.149L536.269 220.8H540.265L541.5 217Z" fill="white"/>
<path d="M497 251L498.796 256.528H504.608L499.906 259.944L501.702 265.472L497 262.056L492.298 265.472L494.094 259.944L489.392 256.528H495.204L497 251Z" fill="white"/>
<path d="M444 271L445.796 276.528H451.608L446.906 279.944L448.702 285.472L444 282.056L439.298 285.472L441.094 279.944L436.392 276.528H442.204L444 271Z" fill="white"/>
<path d="M376.5 207L380.204 218.401H392.192L382.494 225.448L386.198 236.849L376.5 229.802L366.802 236.849L370.506 225.448L360.808 218.401H372.796L376.5 207Z" fill="white"/>
<path d="M698.059 169.693L700.149 184.807L715.168 187.49L701.44 194.148L703.53 209.261L692.956 198.262L679.227 204.92L686.421 191.464L675.847 180.465L690.866 183.148L698.059 169.693Z" fill="white"/>
<path d="M465.5 178L466.735 181.8H470.731L467.498 184.149L468.733 187.95L465.5 185.601L462.267 187.95L463.502 184.149L460.269 181.8H464.265L465.5 178Z" fill="white"/>
<path d="M421 162L422.123 165.455H425.755L422.816 167.59L423.939 171.045L421 168.91L418.061 171.045L419.184 167.59L416.245 165.455H419.877L421 162Z" fill="white"/>
<path d="M370 183L371.796 188.528H377.608L372.906 191.944L374.702 197.472L370 194.056L365.298 197.472L367.094 191.944L362.392 188.528H368.204L370 183Z" fill="white"/>
<path d="M644 206L645.796 211.528H651.608L646.906 214.944L648.702 220.472L644 217.056L639.298 220.472L641.094 214.944L636.392 211.528H642.204L644 206Z" fill="white"/>
<path d="M578 212L579.796 217.528H585.608L580.906 220.944L582.702 226.472L578 223.056L573.298 226.472L575.094 220.944L570.392 217.528H576.204L578 212Z" fill="white"/>
<path d="M722 279L723.796 284.528H729.608L724.906 287.944L726.702 293.472L722 290.056L717.298 293.472L719.094 287.944L714.392 284.528H720.204L722 279Z" fill="white"/>
<path d="M501.5 130L502.735 133.455H506.731L503.498 135.59L504.733 139.045L501.5 136.91L498.267 139.045L499.502 135.59L496.269 133.455H500.265L501.5 130Z" fill="white"/>
<path d="M560.5 71L561.735 74.8004H565.731L562.498 77.1492L563.733 80.9496L560.5 78.6008L557.267 80.9496L558.502 77.1492L555.269 74.8004H559.265L560.5 71Z" fill="white"/>
<path d="M633 129L634.796 134.528H640.608L635.906 137.944L637.702 143.472L633 140.056L628.298 143.472L630.094 137.944L625.392 134.528H631.204L633 129Z" fill="white"/>
<path d="M589 136L590.123 139.455H593.755L590.816 141.59L591.939 145.045L589 142.91L586.061 145.045L587.184 141.59L584.245 139.455H587.877L589 136Z" fill="white"/>
<path d="M514 129L515.796 134.528H521.608L516.906 137.944L518.702 143.472L514 140.056L509.298 143.472L511.094 137.944L506.392 134.528H512.204L514 129Z" fill="white"/>
<path d="M564.5 105L565.735 108.109H569.731L566.498 110.031L567.733 113.141L564.5 111.219L561.267 113.141L562.502 110.031L559.269 108.109H563.265L564.5 105Z" fill="white"/>
<path d="M661 293L662.123 296.455H665.755L662.816 298.59L663.939 302.045L661 299.91L658.061 302.045L659.184 298.59L656.245 296.455H659.877L661 293Z" fill="white"/>
<path d="M673 245L673.674 247.073H675.853L674.09 248.354L674.763 250.427L673 249.146L671.237 250.427L671.91 248.354L670.147 247.073H672.326L673 245Z" fill="white"/>
<path d="M576.5 313L577.735 316.8H581.731L578.498 319.149L579.733 322.95L576.5 320.601L573.267 322.95L574.502 319.149L571.269 316.8H575.265L576.5 313Z" fill="white"/>
<path d="M500.5 274L501.735 277.8H505.731L502.498 280.149L503.733 283.95L500.5 281.601L497.267 283.95L498.502 280.149L495.269 277.8H499.265L500.5 274Z" fill="white"/>
<path d="M456 258L457.123 261.455H460.755L457.816 263.59L458.939 267.045L456 264.91L453.061 267.045L454.184 263.59L451.245 261.455H454.877L456 258Z" fill="white"/>
<path d="M536.5 226L537.735 229.455H541.731L538.498 231.59L539.733 235.045L536.5 232.91L533.267 235.045L534.502 231.59L531.269 229.455H535.265L536.5 226Z" fill="white"/>
<path d="M595.5 167L596.735 170.8H600.731L597.498 173.149L598.733 176.95L595.5 174.601L592.267 176.95L593.502 173.149L590.269 170.8H594.265L595.5 167Z" fill="white"/>
<path d="M624 232L625.123 235.455H628.755L625.816 237.59L626.939 241.045L624 238.91L621.061 241.045L622.184 237.59L619.245 235.455H622.877L624 232Z" fill="white"/>
<path d="M599.5 201L600.735 204.109H604.731L601.498 206.031L602.733 209.141L599.5 207.219L596.267 209.141L597.502 206.031L594.269 204.109H598.265L599.5 201Z" fill="white"/>
<path d="M382 261L383.123 264.455H386.755L383.816 266.59L384.939 270.045L382 267.91L379.061 270.045L380.184 266.59L377.245 264.455H380.877L382 261Z" fill="white"/>
<path d="M345 200L346.123 203.455H349.755L346.816 205.59L347.939 209.045L345 206.91L342.061 209.045L343.184 205.59L340.245 203.455H343.877L345 200Z" fill="white"/>
</svg>
